<?xml version="1.0" encoding="utf-8"?>
<!-- Generator: Adobe Illustrator 24.3.0, SVG Export Plug-In . SVG Version: 6.00 Build 0)  -->
<svg version="1.1" id="Layer_1" xmlns="http://www.w3.org/2000/svg" xmlns:xlink="http://www.w3.org/1999/xlink" x="0px" y="0px"
	 viewBox="0 0 238 161" style="enable-background:new 0 0 238 161;" xml:space="preserve">
<style type="text/css">
	.st0{fill:#662483;}
	.st1{fill:none;}
	.st2{fill:#951B81;}
</style>
<polygon class="st0" points="55.7,28.1 50.8,55.8 36.2,134 36.1,134.8 29.2,134.6 10.8,134.1 10.8,134 25.4,55.8 29.9,30.4 "/>
<polygon class="st0" points="32.2,155.5 36,135 36,134.9 36.1,134.8 30.5,134.6 30.5,134.6 29.2,134.6 10.8,134.1 6.8,155.7 "/>
<polygon class="st0" points="127.3,55.8 112.7,134 112.1,137 93.6,136.6 94.1,134 108.7,55.8 "/>
<polygon class="st0" points="219.9,55.8 206,130.4 194.5,103.6 203.4,55.8 "/>
<polygon class="st0" points="206,130.4 206,130.4 205.3,134 204.3,139.3 192.1,139 190,134 189.2,131.9 189.2,131.9 194.5,103.6 "/>
<polygon class="st0" points="90.9,136.3 87.3,155.5 13.3,155.5 17.2,134.4 35.8,134.9 "/>
<polygon class="st0" points="112.1,137 108.6,155.8 90,155.8 93.6,136.6 "/>
<polygon class="st0" points="141.7,137.8 138.3,155.8 108.6,155.8 112.1,137 112.5,137 131.1,137.5 "/>
<polygon class="st0" points="156.3,138.1 153,155.8 138.3,155.8 141.7,137.8 "/>
<polygon class="st0" points="204.3,139.3 201.2,155.8 198.9,155.8 192.1,139 "/>
<polygon class="st0" points="198.9,155.8 184.8,155.8 187.9,138.9 192.1,139 "/>
<polygon class="st0" points="187.9,138.9 184.8,155.8 153,155.8 156.3,138.1 160.7,138.2 175.4,138.6 "/>
<polygon class="st0" points="59.6,7.3 55.7,28.1 29.9,30.4 34.2,7.3 "/>
<path class="st0" d="M230.3,10.8L42,27.9L59.6,7.3l170.7,3.2c0.1,0,0.1,0,0.1,0.1C230.4,10.7,230.4,10.8,230.3,10.8z"/>
<polygon class="st0" points="167.5,78.1 157.1,134 156.3,138.1 141.7,137.8 142.4,134 157,55.8 158.5,55.8 "/>
<line class="st1" x1="157" y1="55.7" x2="157" y2="55.8"/>
<line class="st1" x1="158.5" y1="55.8" x2="158.5" y2="55.7"/>
<polygon class="st0" points="194.5,103.6 189.2,131.9 167.5,78.1 171.7,55.8 174.1,55.8 "/>
<polygon class="st0" points="187.9,138.9 188.8,134 189.2,131.9 "/>
<polygon class="st0" points="171.7,55.8 167.5,78.1 158.5,55.8 "/>
<polygon class="st2" points="53,28 48.1,55.7 33.5,133.8 33.3,134.6 26.5,134.4 8.1,134 8.1,133.8 22.7,55.7 27.2,30.3 "/>
<polygon class="st2" points="29.4,155.6 29.4,155.5 33.3,134.9 33.3,134.8 33.3,134.6 33.3,134.6 32.1,134.6 26.5,134.4 13.7,134.1 
	8.1,134 4,155.7 9.7,155.7 "/>
<polygon class="st2" points="124.6,55.7 110,133.8 109.4,136.9 90.9,136.4 91.4,133.8 106,55.7 "/>
<polygon class="st2" points="217.2,55.7 203.3,130.2 191.8,103.4 200.7,55.7 "/>
<polygon class="st2" points="203.3,130.2 203.3,130.2 202.6,133.8 201.6,139.1 189.3,138.8 187.3,133.8 186.5,131.8 186.5,131.8 
	191.8,103.4 "/>
<path class="st2" d="M88.4,136.4l-3.6,19.1c0,0,0,0.1-0.1,0.1H10.9c-0.1,0-0.1,0-0.1-0.1c0,0,0,0,0,0l3.9-20.9c0,0,0.1-0.1,0.1-0.1
	l18.5,0.5l55,1.4C88.3,136.3,88.4,136.3,88.4,136.4C88.4,136.4,88.4,136.4,88.4,136.4z"/>
<polygon class="st2" points="109.4,136.9 105.9,155.7 87.3,155.7 90.9,136.4 "/>
<polygon class="st2" points="138.9,137.6 135.6,155.7 105.9,155.7 109.4,136.9 109.7,136.9 128.4,137.4 "/>
<polygon class="st2" points="153.6,138 150.3,155.7 135.6,155.7 138.9,137.6 "/>
<polygon class="st2" points="201.6,139.1 198.5,155.7 196.1,155.7 189.3,138.8 "/>
<polygon class="st2" points="196.1,155.7 182,155.7 185.2,138.7 189.3,138.8 "/>
<polygon class="st2" points="185.2,138.7 182,155.7 150.3,155.7 153.6,138 158,138.1 172.7,138.4 "/>
<polygon class="st2" points="56.8,7.2 53,28 27.2,30.3 31.5,7.2 "/>
<polygon class="st2" points="233.1,10.8 53,28 56.8,7.2 "/>
<polygon class="st2" points="164.8,77.9 154.3,133.8 153.6,138 138.9,137.6 139.6,133.8 154.3,55.7 155.8,55.7 "/>
<line class="st1" x1="154.2" y1="55.7" x2="154.2" y2="55.7"/>
<line class="st1" x1="155.8" y1="55.7" x2="155.8" y2="55.7"/>
<polygon class="st2" points="191.8,103.4 186.5,131.8 164.8,77.9 168.9,55.7 171.3,55.7 "/>
<polygon class="st2" points="168.9,55.7 164.8,77.9 155.8,55.7 "/>
</svg>
